<?xml version="1.0" encoding="UTF-8"?>
<svg id="Layer_1" xmlns="http://www.w3.org/2000/svg" version="1.1" viewBox="0 0 595.28 841.89">
  <!-- Generator: Adobe Illustrator 29.0.0, SVG Export Plug-In . SVG Version: 2.1.0 Build 186)  -->
  <defs>
    <style>
      .st0 {
        fill: #002e48;
      }
    </style>
  </defs>
  <path class="st0" d="M553.52,373.42c-16.98-57.39-76.58-93.95-135.6-84-2.01.34-4,.73-5.95,1.17-27.64,6.17-55.97.11-80.22-14.5-47.29-28.48-108.08-33.72-163.35-6.32-68.34,33.89-105.76,112.34-89.38,186.84,22.05,100.27,125.14,156.55,219.63,124.55l178.41-60.41c61.14-20.71,94.61-85.96,76.46-147.33ZM514.26,425.57c-16.27,30.56-54.23,42.16-84.79,25.89-30.57-16.26-42.16-54.23-25.89-84.79,16.27-30.57,54.23-42.16,84.79-25.89,30.56,16.26,42.16,54.23,25.89,84.79Z"/>
</svg>