<?xml version="1.0" encoding="UTF-8"?>
<svg id="Layer_1" xmlns="http://www.w3.org/2000/svg" version="1.1" viewBox="0 0 841.89 595.28">
  <!-- Generator: Adobe Illustrator 29.0.0, SVG Export Plug-In . SVG Version: 2.1.0 Build 186)  -->
  <defs>
    <style>
      .st0 {
        fill: #4c253e;
      }
    </style>
  </defs>
  <path class="st0" d="M389.99,103.61h-.04c-12.29,0-22.25,10.29-22.25,22.97v74.12h-15.51v-74.18c0-12.69-9.96-22.97-22.25-22.97s-22.24,10.29-22.24,22.97v74.18h-14.03v-74.12c0-12.69-9.96-22.97-22.25-22.97h-.04c-12.29,0-22.25,10.29-22.25,22.97v94.76c0,7.36,3.17,14.1,7.92,18.6h.2c4.35,4.29,10.29,6.75,16.62,6.75h11.58l.79,221.03c0,25.55,20.19,46.2,44.93,46.2s44.73-20.85,44.73-46.4l-.79-179.91v-40.91h12.57c6.53,0,12.27-2.45,16.63-6.75,4.95-4.5,7.92-11.24,7.92-18.6v-94.76c0-12.69-9.96-22.97-22.25-22.97Z"/>
  <path class="st0" d="M460.63,397.66c-13.82,23.91-13.82,53.37,0,77.28l.23.41c13.8,23.87,39.28,38.58,66.86,38.58h.61c27.57,0,53.06-14.7,66.85-38.58l.24-.41c13.82-23.91,13.82-53.37,0-77.28l-22.53-38.99h-.14l-.79-210.19c0-24.74-20.19-44.73-44.93-44.73s-44.73,20.19-44.73,44.93l.79,169.67v40.45l-22.46,38.86Z"/>
</svg>