<svg width="62" height="62" viewBox="0 0 62 62" fill="none" xmlns="http://www.w3.org/2000/svg">
<g clip-path="url(#clip0_10_9)">
<path fill-rule="evenodd" clip-rule="evenodd" d="M24.4585 7.96197C23.774 8.14539 23.1562 8.52082 22.6781 9.04393C22.2061 9.56037 21.8897 10.1995 21.7651 10.8875L19.251 23.4117C19.2461 23.4363 19.2417 23.461 19.2378 23.4858L19.2303 23.5027L19.2155 23.5135C19.1951 23.5215 19.1749 23.5298 19.1548 23.5385L7.57463 28.5562C6.9255 28.7996 6.35694 29.22 5.93385 29.7704C5.49608 30.3399 5.23284 31.0241 5.17602 31.7402C5.1192 32.4563 5.27125 33.1735 5.61373 33.8049C5.95489 34.4339 6.47044 34.9509 7.09832 35.2938L18.2075 41.4454L18.2327 41.4591C18.2485 41.4675 18.2619 41.4797 18.2717 41.4946C18.2816 41.5095 18.2875 41.5266 18.289 41.5444L19.4851 54.4298C19.5484 55.128 19.8062 55.7976 20.2289 56.3566C20.6523 56.9168 21.2243 57.3466 21.8799 57.5976C22.5355 57.8483 23.2484 57.9101 23.9374 57.7758C24.625 57.6418 25.2613 57.3179 25.7743 56.841L25.7774 56.838L35.1037 48.1847C35.1381 48.1573 35.1778 48.1371 35.2204 48.1257C35.263 48.1142 35.3075 48.1119 35.351 48.1184L47.7543 50.9493C48.4376 51.1067 49.1539 51.0697 49.8167 50.8415C50.4806 50.6133 51.067 50.2033 51.5096 49.6584C51.9518 49.1132 52.2324 48.4549 52.3189 47.7581C52.4054 47.0627 52.2952 46.3572 52.0013 45.7212L51.9996 45.7176L46.5978 33.9712L46.5927 33.9605C46.5851 33.9443 46.5817 33.9265 46.5829 33.9086C46.5837 33.8909 46.5894 33.8736 46.5986 33.8584L46.6139 33.8339L53.159 22.9518C53.531 22.3409 53.7191 21.6354 53.7002 20.9202C53.6808 20.2022 53.4541 19.505 53.0467 18.9133C52.6397 18.3215 52.0695 17.8606 51.4055 17.5863C50.764 17.3212 50.0615 17.2413 49.3777 17.3551L36.84 18.7998C36.8183 18.8023 36.7966 18.8052 36.7749 18.8085L36.7566 18.8065L36.7418 18.7956C36.726 18.7761 36.7098 18.7569 36.6932 18.7381L28.2539 9.14879C27.8019 8.61528 27.2083 8.22003 26.5414 8.00878C25.8658 7.7948 25.1431 7.77855 24.4585 7.96197Z" fill="black"/>
</g>
<defs>
<clipPath id="clip0_10_9">
<rect width="50" height="50" fill="white" transform="translate(0.0544434 13.4774) rotate(-15)"/>
</clipPath>
</defs>
</svg>
